. 
 
http://www.torrenting.com          :     Once & For all ;)


               www . Torrenting . Com 

(((((((((((((= Enjoy No RAR releases =))))))))))))))))))))


...................................NFO:....................................

.


                                                                        
                        
            
            
            
            
             
            
              
              
            
            
            
            
            
             
                                    
                                                                        
                                         Presents...                    
                                                                        
        
                                                                      
              Top Cat: The Movie (2011) BRRip x264-BBnRG              
                                                                      
        
                                                                        
                                                                        
                                                       
                                                           
                                                            
                                                          
                                                      
                                                          
                                                          
                                                          
                                                           
                                                            
                                                                        
           Format                           : Matroska                  
           Format version                   : Version 2                 
           File size                        : 528 MiB                   
           Duration                         : 1h 30mn                   
           Overall bit rate                 : 814 Kbps                  
                                                                        
           Video                                                        
           ID                               : 1                         
           Format                           : AVC                       
           Format/Info                      : Advanced Video Codec      
           Format profile                   : High@L3.0                 
           Format settings, CABAC           : Yes                       
           Format settings, ReFrames        : 4 frames                  
           Codec ID                         : V_MPEG4/ISO/AVC           
           Duration                         : 1h 30mn                   
           Bit rate                         : 582 Kbps                  
           Width                            : 640 pixels                
           Height                           : 352 pixels                
           Display aspect ratio             : 16:9                      
           Original display aspect ratio    : 16:9                      
           Frame rate mode                  : Variable                  
           Frame rate                       : 23.976 fps                
           Color space                      : YUV                       
           Chroma subsampling               : 4:2:0                     
           Bit depth                        : 8 bits                    
           Scan type                        : Progressive               
           Bits/(Pixel*Frame)               : 0.108                     
           Stream size                      : 372 MiB (70%)             
           Writing library                  : x264 core 112             
                                                                        
           Audio                                                        
           ID                               : 2                         
           Format                           : AC-3                      
           Format/Info                      : Audio Coding 3            
           Mode extension                   : CM (complete main)        
           Codec ID                         : A_AC3                     
           Duration                         : 1h 30mn                   
           Bit rate mode                    : Constant                  
           Bit rate                         : 224 Kbps                  
           Channel(s)                       : 2 channels                
           Channel positions                : Front: L R                
           Sampling rate                    : 48.0 KHz                  
           Bit depth                        : 16 bits                   
           Compression mode                 : Lossy                     
           Stream size                      : 145 MiB (28%)             
           Language                         : English                   
                                                                        



                                                                        
                                                     
                                                          
                                                          
                                                        
                                                   
                                                      
                                                      
                                                      
                                                        
                                                   
                                                                        
                      Don Gato y su pandilla (2011)                     
 Top Cat and the gang face a new police chief, who is not at all happy  
 with the poor officer Dribble's performance trying to prevent Top Cat's
                                 scams.                                 
                                                                        
                     Ratings: 5.7/10 from 246 Votes                   
                                                                        
                   http://www.imdb.com/title/tt1821680/                 
                                                                        
                                                                        



                                                                        
                                            
                                                       
                                                      
                                                        
                                                   
                                                       
                                                        
                                                      
                                                       
                                                  
                                                                        
                            
                                                                      
                        Source: playXD (Thanks!)                      
                                                                      
                            
                                                                        
                              Encoder: SMiLE ☺                          
                                                                        
 Source was already awesome, we just took it and ran our custom encode  
 settings over the file, before then converting it to a high profile MKV
 . Language is English despite the IMDB and movie poster being in       
 spanish. Great one for the kids and you big kids. Enjoy! ☺             
                                                                        



                                                                        
                                 
                                                      
                                                       
                                                          
                                                 
                                                  
                                                        
                                                      
                                                      
                                         
                                                                        
         To Our Friends & To The Past, Present And Future Of p2p.       
                                                                        
            If You Have Anything That You Can Provide Us With:          
                                                                        
                                                 Come And Find Us...